<?xml version="1.0" encoding="utf-8"?>
<!-- Generator: Adobe Illustrator 20.1.0, SVG Export Plug-In . SVG Version: 6.00 Build 0)  -->
<svg version="1.1" id="Layer_1" xmlns="http://www.w3.org/2000/svg" xmlns:xlink="http://www.w3.org/1999/xlink" x="0px" y="0px"
	 width="111.196" height="30.566"  xml:space="preserve">
<style type="text/css">
	.st0{fill:#929497;}
	.st1{fill:#00ADEE;}
	.st2{fill:#2E3191;}
	.st3{fill:#FFFFFF;}
</style>
<g>
	<path class="st0" d="M42,22.6L30.9,29c-0.3,0.2-0.7,0.2-1,0l-11.1-6.4c-0.3-0.2-0.5-0.5-0.5-0.9V8.9c0-0.4,0.2-0.7,0.5-0.9l11-6.3
		c0.4-0.2,0.9-0.2,1.3,0l11,6.3c0.3,0.2,0.5,0.5,0.5,0.9v12.8C42.5,22,42.3,22.4,42,22.6z"/>
	<g>
		<path class="st1" d="M49.6,19.3h-1.1v3.2H48v-3.2h-1.1v-0.4h2.8V19.3z"/>
		<path class="st1" d="M50.9,22.5c-0.4,0-0.7-0.1-0.9-0.4c-0.2-0.2-0.3-0.6-0.3-0.9v-0.1c0-0.3,0.1-0.5,0.2-0.7
			c0.1-0.2,0.2-0.4,0.4-0.5c0.2-0.1,0.4-0.2,0.6-0.2c0.3,0,0.6,0.1,0.8,0.3c0.2,0.2,0.3,0.6,0.3,1v0.2h-1.8c0,0.3,0.1,0.5,0.2,0.6
			c0.1,0.2,0.3,0.2,0.6,0.2c0.2,0,0.3,0,0.4-0.1c0.1-0.1,0.2-0.2,0.3-0.3l0.3,0.2C51.7,22.3,51.3,22.5,50.9,22.5z M50.8,20.1
			c-0.2,0-0.3,0.1-0.5,0.2c-0.1,0.1-0.2,0.3-0.2,0.6h1.3v0c0-0.2-0.1-0.4-0.2-0.5C51.2,20.2,51,20.1,50.8,20.1z"/>
		<path class="st1" d="M53.5,22.1c0.2,0,0.3,0,0.4-0.1c0.1-0.1,0.2-0.2,0.2-0.4h0.4c0,0.2-0.1,0.3-0.2,0.4c-0.1,0.1-0.2,0.2-0.4,0.3
			c-0.2,0.1-0.3,0.1-0.5,0.1c-0.4,0-0.6-0.1-0.9-0.4c-0.2-0.2-0.3-0.6-0.3-1v-0.1c0-0.3,0-0.5,0.1-0.7c0.1-0.2,0.2-0.4,0.4-0.5
			c0.2-0.1,0.4-0.2,0.6-0.2c0.3,0,0.5,0.1,0.7,0.3c0.2,0.2,0.3,0.4,0.3,0.7h-0.4c0-0.2-0.1-0.3-0.2-0.4c-0.1-0.1-0.3-0.2-0.4-0.2
			c-0.2,0-0.4,0.1-0.5,0.2c-0.1,0.2-0.2,0.4-0.2,0.7v0.1c0,0.3,0.1,0.5,0.2,0.7C53.1,22.1,53.3,22.1,53.5,22.1z"/>
		<path class="st1" d="M55.5,20.1c0.2-0.2,0.5-0.4,0.8-0.4c0.6,0,0.8,0.3,0.9,1v1.8h-0.5v-1.8c0-0.2,0-0.3-0.1-0.4
			c-0.1-0.1-0.2-0.1-0.4-0.1c-0.1,0-0.3,0-0.4,0.1c-0.1,0.1-0.2,0.2-0.3,0.3v1.9h-0.5v-3.8h0.5V20.1z"/>
		<path class="st1" d="M58.3,19.8l0,0.3c0.2-0.3,0.5-0.4,0.8-0.4c0.6,0,0.8,0.3,0.9,1v1.8h-0.5v-1.8c0-0.2,0-0.3-0.1-0.4
			c-0.1-0.1-0.2-0.1-0.4-0.1c-0.1,0-0.3,0-0.4,0.1c-0.1,0.1-0.2,0.2-0.3,0.3v1.9h-0.5v-2.7H58.3z"/>
		<path class="st1" d="M60.5,21.1c0-0.3,0.1-0.5,0.2-0.7c0.1-0.2,0.2-0.4,0.4-0.5c0.2-0.1,0.4-0.2,0.6-0.2c0.4,0,0.7,0.1,0.9,0.4
			c0.2,0.3,0.3,0.6,0.3,1v0c0,0.3,0,0.5-0.1,0.7c-0.1,0.2-0.2,0.4-0.4,0.5c-0.2,0.1-0.4,0.2-0.6,0.2c-0.4,0-0.7-0.1-0.9-0.4
			C60.6,21.9,60.5,21.6,60.5,21.1L60.5,21.1z M61,21.2c0,0.3,0.1,0.5,0.2,0.7c0.1,0.2,0.3,0.3,0.5,0.3c0.2,0,0.4-0.1,0.6-0.3
			c0.1-0.2,0.2-0.4,0.2-0.8c0-0.3-0.1-0.5-0.2-0.7c-0.1-0.2-0.3-0.3-0.6-0.3c-0.2,0-0.4,0.1-0.5,0.3S61,20.8,61,21.2z"/>
		<path class="st1" d="M64,22.5h-0.5v-3.8H64V22.5z"/>
		<path class="st1" d="M64.6,21.1c0-0.3,0.1-0.5,0.2-0.7c0.1-0.2,0.2-0.4,0.4-0.5c0.2-0.1,0.4-0.2,0.6-0.2c0.4,0,0.7,0.1,0.9,0.4
			c0.2,0.3,0.3,0.6,0.3,1v0c0,0.3,0,0.5-0.1,0.7c-0.1,0.2-0.2,0.4-0.4,0.5c-0.2,0.1-0.4,0.2-0.6,0.2c-0.4,0-0.7-0.1-0.9-0.4
			C64.7,21.9,64.6,21.6,64.6,21.1L64.6,21.1z M65.1,21.2c0,0.3,0.1,0.5,0.2,0.7c0.1,0.2,0.3,0.3,0.5,0.3c0.2,0,0.4-0.1,0.6-0.3
			c0.1-0.2,0.2-0.4,0.2-0.8c0-0.3-0.1-0.5-0.2-0.7c-0.1-0.2-0.3-0.3-0.6-0.3c-0.2,0-0.4,0.1-0.5,0.3C65.1,20.6,65.1,20.8,65.1,21.2z
			"/>
		<path class="st1" d="M67.5,21.1c0-0.4,0.1-0.7,0.3-1c0.2-0.2,0.4-0.4,0.8-0.4c0.3,0,0.6,0.1,0.8,0.3l0-0.3h0.4v2.6
			c0,0.3-0.1,0.6-0.3,0.8c-0.2,0.2-0.5,0.3-0.8,0.3c-0.2,0-0.4,0-0.6-0.1c-0.2-0.1-0.3-0.2-0.4-0.3l0.2-0.3c0.2,0.2,0.4,0.4,0.7,0.4
			c0.2,0,0.4-0.1,0.5-0.2c0.1-0.1,0.2-0.3,0.2-0.5v-0.2c-0.2,0.2-0.4,0.3-0.7,0.3c-0.3,0-0.6-0.1-0.8-0.4
			C67.6,21.9,67.5,21.5,67.5,21.1z M67.9,21.2c0,0.3,0.1,0.5,0.2,0.7c0.1,0.2,0.3,0.3,0.5,0.3c0.3,0,0.5-0.1,0.6-0.4v-1.2
			c-0.1-0.3-0.3-0.4-0.6-0.4c-0.2,0-0.4,0.1-0.5,0.3C68,20.6,67.9,20.8,67.9,21.2z"/>
		<path class="st1" d="M70.4,19.1c0-0.1,0-0.1,0.1-0.2s0.1-0.1,0.2-0.1c0.1,0,0.2,0,0.2,0.1c0,0.1,0.1,0.1,0.1,0.2
			c0,0.1,0,0.1-0.1,0.2c0,0-0.1,0.1-0.2,0.1c-0.1,0-0.2,0-0.2-0.1S70.4,19.2,70.4,19.1z M70.9,22.5h-0.5v-2.7h0.5V22.5z"/>
		<path class="st1" d="M72.7,22.5c-0.4,0-0.7-0.1-0.9-0.4c-0.2-0.2-0.3-0.6-0.3-0.9v-0.1c0-0.3,0.1-0.5,0.2-0.7
			c0.1-0.2,0.2-0.4,0.4-0.5c0.2-0.1,0.4-0.2,0.6-0.2c0.3,0,0.6,0.1,0.8,0.3c0.2,0.2,0.3,0.6,0.3,1v0.2H72c0,0.3,0.1,0.5,0.2,0.6
			c0.1,0.2,0.3,0.2,0.6,0.2c0.2,0,0.3,0,0.4-0.1c0.1-0.1,0.2-0.2,0.3-0.3l0.3,0.2C73.5,22.3,73.2,22.5,72.7,22.5z M72.7,20.1
			c-0.2,0-0.3,0.1-0.5,0.2c-0.1,0.1-0.2,0.3-0.2,0.6h1.3v0c0-0.2-0.1-0.4-0.2-0.5C73,20.2,72.9,20.1,72.7,20.1z"/>
		<path class="st1" d="M75.8,21.8c0-0.1,0-0.2-0.1-0.3c-0.1-0.1-0.3-0.1-0.5-0.2c-0.2,0-0.4-0.1-0.5-0.2c-0.1-0.1-0.2-0.2-0.3-0.2
			c-0.1-0.1-0.1-0.2-0.1-0.3c0-0.2,0.1-0.4,0.3-0.6c0.2-0.2,0.4-0.2,0.7-0.2c0.3,0,0.5,0.1,0.7,0.2c0.2,0.2,0.3,0.4,0.3,0.6h-0.5
			c0-0.1-0.1-0.2-0.2-0.3c-0.1-0.1-0.2-0.1-0.4-0.1c-0.2,0-0.3,0-0.4,0.1c-0.1,0.1-0.1,0.2-0.1,0.3c0,0.1,0,0.2,0.1,0.2
			c0.1,0.1,0.2,0.1,0.5,0.2c0.2,0.1,0.4,0.1,0.6,0.2c0.1,0.1,0.2,0.2,0.3,0.3c0.1,0.1,0.1,0.2,0.1,0.4c0,0.2-0.1,0.4-0.3,0.6
			c-0.2,0.1-0.4,0.2-0.7,0.2c-0.2,0-0.4,0-0.6-0.1c-0.2-0.1-0.3-0.2-0.4-0.3c-0.1-0.1-0.1-0.3-0.1-0.4h0.5c0,0.2,0.1,0.3,0.2,0.4
			c0.1,0.1,0.3,0.1,0.5,0.1c0.2,0,0.3,0,0.4-0.1C75.8,22,75.8,21.9,75.8,21.8z"/>
	</g>
	<g>
		<g>
			<path class="st1" d="M51.7,15.8c-0.3,0.3-0.7,0.5-1.1,0.7c-0.4,0.2-0.9,0.2-1.3,0.2c-0.4,0-0.7,0-1-0.1c-0.3-0.1-0.6-0.2-0.9-0.4
				c-0.3-0.2-0.5-0.4-0.8-0.6c-0.2-0.2-0.4-0.5-0.6-0.8c-0.2-0.3-0.3-0.6-0.4-0.9c-0.1-0.3-0.1-0.7-0.1-1c0-0.4,0-0.7,0.1-1
				c0.1-0.3,0.2-0.6,0.4-0.9c0.2-0.3,0.4-0.5,0.6-0.8c0.2-0.2,0.5-0.4,0.8-0.6c0.3-0.2,0.6-0.3,0.9-0.4c0.3-0.1,0.7-0.1,1-0.1
				c0.5,0,0.9,0.1,1.3,0.2c0.4,0.2,0.8,0.4,1.1,0.7l-0.8,1.3c-0.2-0.2-0.5-0.4-0.8-0.5c-0.3-0.1-0.6-0.2-0.9-0.2s-0.6,0.1-0.9,0.2
				c-0.3,0.1-0.5,0.3-0.7,0.5c-0.2,0.2-0.4,0.5-0.5,0.7s-0.2,0.6-0.2,0.9c0,0.3,0.1,0.6,0.2,0.9c0.1,0.3,0.3,0.5,0.5,0.7
				c0.2,0.2,0.5,0.4,0.7,0.5c0.3,0.1,0.6,0.2,0.9,0.2c0.2,0,0.4,0,0.5-0.1c0.2,0,0.3-0.1,0.5-0.2v-2.1h1.4V15.8z"/>
			<path class="st1" d="M54.1,16.5h-1.4V11H53l0.5,0.7c0.2-0.2,0.5-0.4,0.8-0.5c0.3-0.1,0.6-0.2,0.9-0.2h1.2v1.4h-1.2
				c-0.1,0-0.3,0-0.4,0.1c-0.1,0.1-0.2,0.1-0.3,0.2c-0.1,0.1-0.2,0.2-0.2,0.3c-0.1,0.1-0.1,0.3-0.1,0.4V16.5z"/>
			<path class="st1" d="M62.3,16.5h-0.3l-0.5-0.8c-0.1,0.1-0.3,0.2-0.4,0.3c-0.1,0.1-0.3,0.2-0.5,0.3c-0.2,0.1-0.3,0.1-0.5,0.2
				c-0.2,0-0.3,0.1-0.5,0.1c-0.4,0-0.8-0.1-1.1-0.2c-0.3-0.1-0.6-0.3-0.9-0.6c-0.3-0.2-0.5-0.6-0.6-0.9c-0.1-0.4-0.2-0.8-0.2-1.2
				c0-0.4,0.1-0.8,0.2-1.2c0.1-0.4,0.3-0.7,0.6-0.9c0.3-0.3,0.6-0.5,0.9-0.6c0.3-0.1,0.7-0.2,1.1-0.2c0.2,0,0.4,0,0.5,0.1
				c0.2,0,0.3,0.1,0.5,0.2c0.2,0.1,0.3,0.2,0.5,0.3c0.1,0.1,0.3,0.2,0.4,0.3l0.5-0.7h0.3V16.5z M60.8,13.7c0-0.2,0-0.4-0.1-0.6
				c-0.1-0.2-0.2-0.3-0.3-0.5c-0.1-0.1-0.3-0.3-0.4-0.3c-0.2-0.1-0.4-0.1-0.5-0.1c-0.2,0-0.4,0-0.5,0.1c-0.2,0.1-0.3,0.2-0.4,0.3
				c-0.1,0.1-0.2,0.3-0.3,0.5c-0.1,0.2-0.1,0.4-0.1,0.6c0,0.2,0,0.5,0.1,0.6c0.1,0.2,0.2,0.3,0.3,0.5c0.1,0.1,0.3,0.2,0.4,0.3
				c0.2,0.1,0.4,0.1,0.5,0.1c0.2,0,0.4,0,0.5-0.1c0.2-0.1,0.3-0.2,0.4-0.3c0.1-0.1,0.2-0.3,0.3-0.5C60.8,14.1,60.8,13.9,60.8,13.7z"
				/>
			<path class="st1" d="M64.7,18.6v-1.4l0.8,0c0.1,0,0.3,0,0.4-0.1c0.1,0,0.2-0.1,0.4-0.2c0.1-0.1,0.2-0.2,0.3-0.3
				c0.1-0.1,0.1-0.2,0.2-0.4c-0.2,0.1-0.3,0.1-0.5,0.2c-0.2,0.1-0.3,0.1-0.5,0.1c-0.3,0-0.7-0.1-1-0.2s-0.6-0.3-0.8-0.5
				c-0.2-0.2-0.4-0.5-0.5-0.8c-0.1-0.3-0.2-0.7-0.2-1.1V11h1.4V14c0,0.2,0,0.4,0.1,0.5c0.1,0.1,0.1,0.3,0.2,0.4
				c0.1,0.1,0.2,0.2,0.3,0.2c0.1,0,0.3,0.1,0.4,0.1c0.1,0,0.3,0,0.4-0.1c0.1-0.1,0.2-0.2,0.3-0.3c0.1-0.1,0.2-0.2,0.2-0.4
				c0.1-0.1,0.1-0.3,0.1-0.4V11h1.4v4.8c0,0.4-0.1,0.8-0.2,1.1c-0.1,0.3-0.3,0.6-0.6,0.9c-0.3,0.3-0.6,0.5-0.9,0.6
				c-0.3,0.1-0.7,0.2-1.1,0.2L64.7,18.6z"/>
			<path class="st1" d="M75.3,15.8c-0.3,0.3-0.7,0.5-1.2,0.7c-0.4,0.2-0.9,0.2-1.3,0.2c-0.4,0-0.7,0-1-0.1c-0.3-0.1-0.6-0.2-0.9-0.4
				c-0.3-0.2-0.5-0.4-0.8-0.6c-0.2-0.2-0.4-0.5-0.6-0.8c-0.2-0.3-0.3-0.6-0.4-0.9c-0.1-0.3-0.1-0.7-0.1-1c0-0.4,0-0.7,0.1-1
				c0.1-0.3,0.2-0.6,0.4-0.9c0.2-0.3,0.4-0.5,0.6-0.8c0.2-0.2,0.5-0.4,0.8-0.6c0.3-0.2,0.6-0.3,0.9-0.4c0.3-0.1,0.7-0.1,1-0.1
				c0.5,0,0.9,0.1,1.3,0.2c0.4,0.2,0.8,0.4,1.2,0.7l-0.8,1.3c-0.2-0.2-0.5-0.4-0.8-0.5c-0.3-0.1-0.6-0.2-0.9-0.2
				c-0.3,0-0.6,0.1-0.9,0.2c-0.3,0.1-0.5,0.3-0.7,0.5c-0.2,0.2-0.4,0.5-0.5,0.7c-0.1,0.3-0.2,0.6-0.2,0.9c0,0.3,0.1,0.6,0.2,0.9
				c0.1,0.3,0.3,0.5,0.5,0.7c0.2,0.2,0.5,0.4,0.7,0.5c0.3,0.1,0.6,0.2,0.9,0.2c0.3,0,0.6-0.1,0.9-0.2c0.3-0.1,0.6-0.3,0.8-0.5
				L75.3,15.8z"/>
			<path class="st1" d="M80,15.9c-0.1,0.1-0.2,0.2-0.4,0.3c-0.1,0.1-0.3,0.2-0.4,0.2c-0.1,0.1-0.3,0.1-0.4,0.2
				c-0.1,0-0.3,0.1-0.5,0.1c-0.3,0-0.7-0.1-1-0.2s-0.6-0.3-0.8-0.5c-0.2-0.2-0.4-0.5-0.5-0.8c-0.1-0.3-0.2-0.7-0.2-1.1V11h1.4V14
				c0,0.2,0,0.4,0.1,0.5c0.1,0.1,0.1,0.3,0.2,0.4c0.1,0.1,0.2,0.2,0.3,0.2c0.1,0.1,0.3,0.1,0.4,0.1c0.1,0,0.3,0,0.4-0.1
				c0.1-0.1,0.2-0.2,0.3-0.3c0.1-0.1,0.2-0.2,0.2-0.4c0.1-0.1,0.1-0.3,0.1-0.4V11h1.4v5.5h-0.3L80,15.9z"/>
			<path class="st1" d="M87.4,13.7c0,0.4-0.1,0.8-0.2,1.2c-0.1,0.4-0.3,0.7-0.6,0.9c-0.3,0.3-0.6,0.5-0.9,0.6
				c-0.3,0.1-0.7,0.2-1.1,0.2c-0.4,0-0.8-0.1-1.1-0.2c-0.3-0.1-0.6-0.3-0.9-0.6c-0.3-0.3-0.5-0.6-0.6-0.9c-0.1-0.4-0.2-0.7-0.2-1.2
				V8.8h1.4v2.6c0.1-0.1,0.2-0.2,0.3-0.3c0.1-0.1,0.2-0.1,0.4-0.2c0.1,0,0.3-0.1,0.4-0.1c0.1,0,0.3,0,0.4,0c0.4,0,0.8,0.1,1.1,0.2
				c0.3,0.1,0.6,0.3,0.9,0.6c0.3,0.3,0.5,0.6,0.6,0.9C87.3,12.9,87.4,13.3,87.4,13.7z M86,13.7c0-0.2,0-0.4-0.1-0.6
				c-0.1-0.2-0.2-0.3-0.3-0.5c-0.1-0.1-0.3-0.2-0.4-0.3c-0.2-0.1-0.4-0.1-0.5-0.1c-0.2,0-0.4,0-0.5,0.1c-0.2,0.1-0.3,0.2-0.4,0.3
				c-0.1,0.1-0.2,0.3-0.3,0.5c-0.1,0.2-0.1,0.4-0.1,0.6c0,0.2,0,0.4,0.1,0.6c0.1,0.2,0.2,0.3,0.3,0.5c0.1,0.1,0.3,0.2,0.4,0.3
				c0.2,0.1,0.4,0.1,0.5,0.1c0.2,0,0.4,0,0.5-0.1c0.2-0.1,0.3-0.2,0.4-0.3c0.1-0.1,0.2-0.3,0.3-0.5C85.9,14.1,86,13.9,86,13.7z"/>
			<path class="st1" d="M90.3,15.2c0.1,0,0.1,0,0.2,0c0.1,0,0.1,0,0.2,0c0.1,0,0.3,0,0.4-0.1c0.1,0,0.2-0.1,0.4-0.2
				c0.1-0.1,0.2-0.2,0.3-0.3c0.1-0.1,0.2-0.2,0.2-0.3l1,1c-0.1,0.2-0.3,0.4-0.5,0.5c-0.2,0.1-0.4,0.3-0.6,0.4
				c-0.2,0.1-0.4,0.2-0.6,0.2c-0.2,0.1-0.4,0.1-0.7,0.1c-0.4,0-0.8-0.1-1.1-0.2c-0.3-0.1-0.6-0.3-0.9-0.6c-0.3-0.3-0.5-0.6-0.6-0.9
				c-0.1-0.4-0.2-0.7-0.2-1.2c0-0.4,0.1-0.8,0.2-1.2c0.1-0.4,0.3-0.7,0.6-0.9c0.3-0.3,0.6-0.5,0.9-0.6c0.3-0.1,0.7-0.2,1.1-0.2
				c0.2,0,0.5,0,0.7,0.1c0.2,0.1,0.4,0.1,0.6,0.2c0.2,0.1,0.4,0.2,0.6,0.4c0.2,0.1,0.3,0.3,0.5,0.5L90.3,15.2z M91.1,12.3
				c-0.1,0-0.1,0-0.2,0c-0.1,0-0.1,0-0.2,0c-0.2,0-0.4,0-0.5,0.1c-0.2,0.1-0.3,0.2-0.4,0.3c-0.1,0.1-0.2,0.3-0.3,0.5
				c-0.1,0.2-0.1,0.4-0.1,0.6c0,0.1,0,0.1,0,0.2c0,0.1,0,0.1,0,0.2c0,0.1,0,0.1,0,0.2c0,0.1,0,0.1,0.1,0.2L91.1,12.3z"/>
		</g>
	</g>
	<polygon class="st2" points="40.2,18.6 40.2,18.6 40.2,18.6 	"/>
	<path class="st3" d="M40.2,21l-9.3,5.3c-0.3,0.2-0.7,0.2-1,0l-8.7-5c-0.3-0.2-0.5-0.5-0.5-0.9v-10c0-0.4,0.2-0.7,0.5-0.9l8.7-5.1
		c0.3-0.2,0.7-0.2,1.1,0l8.8,5.1c0.3,0.2,0.5,0.5,0.5,0.9v4.3c0,0.4-0.5,0.7-0.9,0.5l-1-0.6c-0.2-0.1-0.3-0.3-0.3-0.5v-2.5
		c0-0.4-0.2-0.7-0.5-0.9l-6.7-3.8c-0.3-0.2-0.7-0.2-1,0l-6.6,3.8c-0.3,0.2-0.5,0.5-0.5,0.9v7.6c0,0.4,0.2,0.7,0.5,0.9l6.6,3.9
		c0.3,0.2,0.7,0.2,1.1,0l6.6-3.8c0.3-0.1,0.2-0.5,0-0.7l-4.9-2.8c-0.3-0.2-0.7-0.2-1,0l-4.8,2.7c-0.2,0.1-0.4,0.1-0.5,0l-1-0.6
		c-0.4-0.2-0.4-0.7,0-0.9l6.3-3.7c0.3-0.2,0.7-0.2,1.1,0l7.5,4.4"/>
</g>
</svg>
